#!OML:ASF H:\Terrain\Patient Classification 1\Animal2\Wednesday\Animal2.ASF
:FULLY-SPECIFIED
:DEGREES
2183
root 4.64628 17.1119 3.57026 4.2992 19.2159 -2.92678
lowerback 5.95896 0.60652 3.48186
upperback -2.93477 1.52191 6.11759
thorax -6.5195 0.766024 4.3012
lowerneck 11.3658 12.1697 18.8651
upperneck -27.7941 15.2964 -27.3
head -6.02454 8.70791 -13.5885
rclavicle 2.47487e-014 -6.36111e-015
rhumerus -5.253 -3.72771 -67.4574
rradius 118.104
rwrist -30.8571
rhand -27.3988 -1.85438
rfingers 7.12502
rthumb -0.805217 -31.8326
lclavicle 2.47487e-014 -6.36111e-015
lhumerus 15.4835 30.8974 40.2077
lradius 111.204
lwrist 77.6489
lhand -38.5887 29.47
lfingers 7.12502
lthumb -11.607 59.1286
rfemur 1.92617 3.84047 4.51145
rtibia 33.514
rfoot -5.87936 -15.0553
rtoes 10.9073
lfemur -24.9244 -2.48716 -10.102
ltibia 44.8419
lfoot -23.6936 3.155
ltoes -40.2758
2184
root 4.76673 17.1524 3.60798 4.36045 19.5539 -3.00826
lowerback 6.00435 0.430578 3.33884
upperback -2.86769 1.27652 6.18424
thorax -6.46643 0.652824 4.4807
lowerneck 11.4345 12.1249 18.9771
upperneck -27.6035 15.2219 -27.6543
head -5.93885 8.71082 -13.7271
rclavicle 6.24184e-014 1.43125e-014
rhumerus -5.91692 -3.91021 -67.508
rradius 118.632
rwrist -31.0429
rhand -25.9155 -1.36129
rfingers 7.12502
rthumb 0.627397 -31.3401
lclavicle 6.24184e-014 1.43125e-014
lhumerus 16.3756 30.9858 40.7384
lradius 110.834
lwrist 77.3543
lhand -38.5198 29.4102
lfingers 7.12502
lthumb -11.5406 59.0725
rfemur 0.898706 3.61129 4.99311
rtibia 34.6287
rfoot -6.98333 -13.7203
rtoes 7.69025
lfemur -24.5886 -2.58082 -10.3942
ltibia 44.3207
lfoot -23.7479 1.96346
ltoes -37.8339
2185
root 4.88879 17.2018 3.65626 4.62635 19.8208 -2.66419
lowerback 6.02778 0.317388 2.82656
upperback -2.9363 1.08081 6.10699
thorax -6.54816 0.576292 4.71287
lowerneck 11.9041 11.9682 18.9968
upperneck -27.6526 15.0425 -27.8298
head -6.06289 8.66056 -13.8798
rclavicle 1.38652e-014 2.06736e-014
rhumerus -6.96826 -4.22798 -67.5856
rradius 119.28
rwrist -31.295
rhand -24.1967 -1.08344
rfingers 7.12502
rthumb 2.28738 -31.0509
lclavicle 1.38652e-014 2.06736e-014
lhumerus 17.2057 30.8461 41.2816
lradius 110.442
lwrist 77.0645
lhand -38.5606 29.2474
lfingers 7.12502
lthumb -11.5799 58.9075
rfemur -0.211834 3.32466 5.04002
rtibia 35.6715
rfoot -7.91652 -12.3441
rtoes 4.99424
lfemur -24.2244 -2.72858 -11.1513
ltibia 43.7788
lfoot -23.6066 0.831315
ltoes -33.759
2186
root 5.00838 17.2429 3.70164 4.77273 20.115 -2.48398
lowerback 6.25098 0.222161 2.53807
upperback -3.01566 0.942615 6.03549
thorax -6.75524 0.519716 4.82041
lowerneck 11.8274 11.9343 18.829
upperneck -27.3361 14.9964 -27.6623
head -6.00151 8.63364 -13.7483
rclavicle -3.95085e-014 6.52014e-014
rhumerus -8.04463 -4.47963 -67.5833
rradius 119.775
rwrist -31.316
rhand -23.0117 -0.560238
rfingers 7.12502
rthumb 3.43181 -30.5124
lclavicle -3.95085e-014 6.52014e-014
lhumerus 18.0326 30.4185 41.8697
lradius 110.012
lwrist 76.4104
lhand -38.5924 28.4134
lfingers 7.12502
lthumb -11.6106 58.0717
rfemur -1.26585 3.1082 5.30913
rtibia 36.6409
rfoot -8.62298 -11.1057
rtoes 2.22678
lfemur -23.8273 -2.82311 -11.7418
ltibia 43.2598
lfoot -23.3196 0.387384
ltoes -31.8872
2187
root 5.12125 17.2701 3.73941 4.72995 20.4654 -2.62869
lowerback 6.17285 0.0855438 2.46265
upperback -2.7102 0.732731 6.1337
thorax -6.37345 0.418407 4.98477
lowerneck 11.4932 12.02 18.6017
upperneck -27.3864 15.0077 -27.693
head -5.9694 8.653 -13.6883
rclavicle -4.6118e-014 -3.81667e-014
rhumerus -8.47452 -4.78542 -67.4579
rradius 120.201
rwrist -31.29
rhand -22.0797 0.386976
rfingers 7.12502
rthumb 4.33182 -29.5487
lclavicle -4.6118e-014 -3.81667e-014
lhumerus 19.1115 30.4281 42.6644
lradius 109.589
lwrist 75.7421
lhand -38.3101 28.3621
lfingers 7.12502
lthumb -11.3383 58.0356
rfemur -2.25364 2.88257 5.95988
rtibia 37.5186
rfoot -9.32521 -10.2326
rtoes 0.201164
lfemur -23.4025 -2.82272 -11.962
ltibia 42.7686
lfoot -22.9792 0.125873
ltoes -32.3542
2188
root 5.22891 17.2986 3.77734 4.66538 20.869 -2.96953
lowerback 6.26871 -0.10836 2.6083
upperback -2.67612 0.500239 6.2807
thorax -6.37791 0.301584 5.08758
lowerneck 11.6504 11.9982 18.5846
upperneck -27.3595 14.9854 -27.7729
head -5.98741 8.66066 -13.7333
rclavicle -2.71341e-014 7.95139e-015
rhumerus -9.35511 -4.97564 -67.2857
rradius 120.798
rwrist -31.2845
rhand -20.8941 0.652591
rfingers 7.12502
rthumb 5.47658 -29.2566
lclavicle -2.71341e-014 7.95139e-015
lhumerus 19.7435 30.2362 43.2096
lradius 109.183
lwrist 75.1639
lhand -38.0683 29.0136
lfingers 7.12502
lthumb -11.1052 58.6998
rfemur -3.24786 2.64575 6.89994
rtibia 38.3141
rfoot -10.128 -9.70069
rtoes -2.1641
lfemur -23.0683 -2.85117 -11.9497
ltibia 42.307
lfoot -22.757 0.131575
ltoes -33.4611
2189
root 5.33454 17.3415 3.82516 4.52483 21.2432 -3.34606
lowerback 6.01188 -0.360107 2.83631
upperback -2.38556 0.15188 6.39895
thorax -5.89823 0.119203 5.11095
lowerneck 11.5676 12.0598 18.5533
upperneck -27.2471 15.0519 -27.8304
head -5.91561 8.70301 -13.7175
rclavicle 4.77083e-014 5.08889e-014
rhumerus -9.78624 -5.1444 -67.4578
rradius 121.353
rwrist -31.0305
rhand -19.5168 0.0925915
rfingers 7.12502
rthumb 6.80632 -29.778
lclavicle 4.77083e-014 5.08889e-014
lhumerus 20.5998 30.3544 43.7751
lradius 108.655
lwrist 74.6295
lhand -38.1327 29.2307
lfingers 7.12502
lthumb -11.1672 58.9135
rfemur -4.18571 2.69714 8.00749
rtibia 39.0699
rfoot -11.2337 -9.38324
rtoes -3.56484
lfemur -22.6063 -2.89013 -11.8847
ltibia 41.7959
lfoot -22.6198 0.269007
ltoes -34.9537
